<svg width="40" height="40" viewBox="0 0 40 40" fill="none" xmlns="http://www.w3.org/2000/svg">
<path d="M20 40C31.0457 40 40 31.0457 40 20C40 8.95431 31.0457 0 20 0C8.95431 0 0 8.95431 0 20C0 31.0457 8.95431 40 20 40Z" fill="#3B5998"/>
<path d="M21.8667 31.8667V21.0667H25.4667L26 16.8H21.8667V14.1334C21.8667 12.9334 22.2667 12.1334 24 12.1334H26.2667V8.2667C25.8667 8.2667 24.5333 8.13336 23.0667 8.13336C19.8667 8.13336 17.6 10.1334 17.6 13.7334V16.8H14V21.0667H17.6V31.8667H21.8667Z" fill="white"/>
</svg>
